# xmcd
#
# Track frame offsets: 
#        150
#        22592
#        43965
#        63670
#        82752
#        101352
#        129325
#        151207
#        171462
#        191205
#        207220
#        230807
#        253255
#
# Disc length: 3852 seconds
#
# Revision: 3
# Processed by: cddbd v1.5.2PL0 Copyright (c) Steve Scherf et al.
# Submitted via: ExactAudioCopy v1.0b3
#
DISCID=ae0f0a0d
DTITLE=D' Atra Hicks - D' Atra Hicks
DYEAR=1989
DGENRE=Soul
TTITLE0=Sweet Talk
TTITLE1=You Make Me Want To Give It Up
TTITLE2=Something About You
TTITLE3=Palm Of Your Hand
TTITLE4=Until Forever
TTITLE5=Love And Happiness
TTITLE6=Heart Of Gold
TTITLE7=I Wanna Be Loved
TTITLE8=If My Heart Could Lie
TTITLE9=Wait
TTITLE10=One Touch (Leads To Another)
TTITLE11=Everything I Feel
TTITLE12=Sweet Talk (Extended Mix)
EXTD=
EXTT0=
EXTT1=
EXTT2=
EXTT3=
EXTT4=
EXTT5=
EXTT6=
EXTT7=
EXTT8=
EXTT9=
EXTT10=
EXTT11=
EXTT12=
PLAYORDER=
